#!OML:ASF G:\JayActor3\Patient Classification 1\Patient 1\Session 5\male.ASF
:FULLY-SPECIFIED
:DEGREES
633
root -0.106659 16.1603 -4.87043 320.769 91.3416 304.846
lowerback 34.5734 -2.10475 0.389993
upperback 10.1692 -1.50387 -2.1558
thorax -6.38664 -0.184362 -1.98974
lowerneck 0.627818 -0.815665 2.36388
upperneck -23.5716 0.334911 2.6713
head -7.32682 0.0812537 0.405848
rclavicle 1.90833e-014 1.35174e-014
rhumerus -29.58 2.87886 -89.2506
rradius 42.0163
rwrist -1.7987
rhand -21.3419 -10.6058
rfingers 7.12502
rthumb 5.04426 -40.5258
lclavicle 1.90833e-014 1.35174e-014
lhumerus -30.9426 1.27142 81.918
lradius 37.2284
lwrist 24.3874
lhand -19.9133 14.1222
lfingers 7.12502
lthumb 6.42356 44.0048
rfemur -68.4543 -3.21118 19.9825
rtibia 45.3327
rfoot 18.9268 -18.3563
rtoes -0.360088
lfemur -47.6802 15.6913 -28.4329
ltibia 73.1698
lfoot 7.97517 -0.920833
ltoes -34.453
634
root 0.0522933 16.1535 -4.84922 326.788 91.4751 310.819
lowerback 34.4541 -2.14556 0.414288
upperback 10.1649 -1.5447 -2.10319
thorax -6.34842 -0.205911 -1.93369
lowerneck 0.599299 -0.832822 2.36004
upperneck -23.5403 0.303086 2.65166
head -7.31118 0.0679809 0.402067
rclavicle -9.14409e-015 -3.37934e-015
rhumerus -29.6282 2.78556 -89.1678
rradius 41.931
rwrist -1.7611
rhand -21.3411 -10.5352
rfingers 7.12502
rthumb 5.04501 -40.4551
lclavicle -9.14409e-015 -3.37934e-015
lhumerus -31.0014 1.30049 81.9418
lradius 37.2325
lwrist 24.3003
lhand -19.8616 14.1372
lfingers 7.12502
lthumb 6.4734 44.0183
rfemur -68.3495 -3.339 20.2469
rtibia 45.1301
rfoot 19.5094 -18.7917
rtoes 0.658327
lfemur -47.0029 15.7192 -28.1518
ltibia 73.0685
lfoot 7.88152 -1.00347
ltoes -34.5829
635
root 0.214615 16.1432 -4.827 332.119 91.6307 316.115
lowerback 34.3417 -2.19386 0.446856
upperback 10.1599 -1.59177 -2.04847
thorax -6.31377 -0.230267 -1.8777
lowerneck 0.569579 -0.846039 2.35415
upperneck -23.5013 0.276295 2.63278
head -7.29285 0.0572253 0.398546
rclavicle 1.94809e-014 2.56432e-014
rhumerus -29.6656 2.6771 -89.0801
rradius 41.816
rwrist -1.70702
rhand -21.3428 -10.4366
rfingers 7.12502
rthumb 5.04337 -40.3566
lclavicle 1.94809e-014 2.56432e-014
lhumerus -31.0759 1.33276 81.9644
lradius 37.2502
lwrist 24.2231
lhand -19.8265 14.1413
lfingers 7.12502
lthumb 6.50728 44.0213
rfemur -68.2801 -3.48137 20.5429
rtibia 45.2608
rfoot 19.9126 -19.0572
rtoes 1.74411
lfemur -46.3262 15.7402 -27.855
ltibia 73.0017
lfoot 7.80934 -1.06477
ltoes -34.6958
636
root 0.380163 16.129 -4.80402 336.628 91.8053 320.596
lowerback 34.2298 -2.24548 0.482747
upperback 10.1564 -1.64137 -1.9901
thorax -6.27748 -0.255721 -1.81891
lowerneck 0.542137 -0.858222 2.34452
upperneck -23.4632 0.251107 2.6153
head -7.2752 0.0473978 0.396016
rclavicle -8.34896e-015 9.34288e-015
rhumerus -29.6912 2.55529 -88.9839
rradius 41.6768
rwrist -1.63782
rhand -21.3636 -10.334
rfingers 7.12502
rthumb 5.02327 -40.2545
lclavicle -8.34896e-015 9.34288e-015
lhumerus -31.1534 1.36869 81.9904
lradius 37.265
lwrist 24.1668
lhand -19.7898 14.1343
lfingers 7.12502
lthumb 6.54277 44.0133
rfemur -68.2512 -3.64277 20.872
rtibia 45.7326
rfoot 20.0048 -19.1075
rtoes 2.86002
lfemur -45.6569 15.7612 -27.5491
ltibia 72.9729
lfoot 7.75681 -1.10054
ltoes -34.7756
637
root 0.548267 16.1103 -4.7808 340.339 91.9907 324.277
lowerback 34.1187 -2.30329 0.53285
upperback 10.147 -1.69552 -1.93724
thorax -6.24852 -0.283415 -1.77196
lowerneck 0.517891 -0.871492 2.33088
upperneck -23.4229 0.226629 2.61036
head -7.25739 0.037121 0.39822
rclavicle -7.95139e-016 -3.97569e-016
rhumerus -29.7163 2.41872 -88.8914
rradius 41.5257
rwrist -1.55456
rhand -21.3927 -10.2612
rfingers 7.12502
rthumb 4.99517 -40.1823
lclavicle -7.95139e-016 -3.97569e-016
lhumerus -31.2381 1.40183 82.0099
lradius 37.2777
lwrist 24.1474
lhand -19.7504 14.1143
lfingers 7.12502
lthumb 6.58082 43.992
rfemur -68.2845 -3.83079 21.2413
rtibia 46.5452
rfoot 19.7229 -18.9064
rtoes 3.95355
lfemur -45.011 15.7804 -27.239
ltibia 72.9859
lfoot 7.71476 -1.11691
ltoes -34.8292
638
root 0.718682 16.0878 -4.75717 343.561 92.1872 327.468
lowerback 34.016 -2.36831 0.601479
upperback 10.1321 -1.75358 -1.88788
thorax -6.22933 -0.312878 -1.73715
lowerneck 0.496394 -0.887936 2.31376
upperneck -23.3848 0.200027 2.61665
head -7.24079 0.0251392 0.404819
rclavicle 2.66371e-014 1.31198e-014
rhumerus -29.7463 2.27219 -88.8047
rradius 41.379
rwrist -1.47342
rhand -21.4035 -10.2532
rfingers 7.12502
rthumb 4.98473 -40.1746
lclavicle 2.66371e-014 1.31198e-014
lhumerus -31.3248 1.43417 82.0229
lradius 37.2876
lwrist 24.1584
lhand -19.7227 14.1208
lfingers 7.12502
lthumb 6.60748 43.9977
rfemur -68.3802 -4.04205 21.6423
rtibia 47.6759
rfoot 19.0477 -18.4285
rtoes 4.86954
lfemur -44.3795 15.7951 -26.9143
ltibia 73.035
lfoot 7.67372 -1.13521
ltoes -34.8639
639
root 0.890445 16.0613 -4.7339 346.244 92.3817 330.111
lowerback 33.9147 -2.43657 0.694032
upperback 10.1091 -1.81006 -1.84567
thorax -6.2204 -0.341743 -1.72314
lowerneck 0.477346 -0.908152 2.29063
upperneck -23.3489 0.170417 2.63486
head -7.22535 0.0112102 0.41651
rclavicle 2.26615e-014 -1.35174e-014
rhumerus -29.7904 2.11422 -88.7249
rradius 41.2503
rwrist -1.398
rhand -21.4097 -10.3104
rfingers 7.12502
rthumb 4.97874 -40.2319
lclavicle 2.26615e-014 -1.35174e-014
lhumerus -31.4063 1.4552 82.0327
lradius 37.2883
lwrist 24.1999
lhand -19.7029 14.1313
lfingers 7.12502
lthumb 6.62662 44.0076
rfemur -68.5612 -4.26048 22.0537
rtibia 49.0728
rfoot 18.0769 -17.7489
rtoes 5.41308
lfemur -43.7742 15.8036 -26.5819
ltibia 73.1149
lfoot 7.63124 -1.17329
ltoes -34.909
